<?xml version="1.0" standalone="no"?>
<!DOCTYPE svg PUBLIC "-//W3C//DTD SVG 20010904//EN"
 "http://www.w3.org/TR/2001/REC-SVG-20010904/DTD/svg10.dtd">
<svg version="1.0" xmlns="http://www.w3.org/2000/svg"
 width="225.000000pt" height="225.000000pt" viewBox="0 0 225.000000 225.000000"
 preserveAspectRatio="xMidYMid meet">
<metadata>
Created by potrace 1.14, written by Peter Selinger 2001-2017
</metadata>
<g transform="translate(0.000000,225.000000) scale(0.100000,-0.100000)"
fill="#000000" stroke="none">
<path d="M1551 1359 c-229 -45 -319 -307 -164 -479 39 -44 69 -63 199 -125 86
-42 159 -83 168 -97 37 -53 7 -126 -60 -148 -82 -27 -186 6 -240 77 l-31 41
-87 -50 c-47 -27 -86 -54 -86 -60 0 -20 64 -97 106 -127 64 -47 123 -70 207
-81 177 -25 333 39 400 165 17 32 21 57 21 130 0 78 -3 97 -26 141 -43 83
-109 131 -277 204 -113 49 -137 66 -151 106 -12 35 -6 59 23 92 17 18 31 22
75 22 51 0 58 -3 94 -41 21 -22 42 -39 46 -37 34 14 152 95 152 104 0 20 -91
114 -130 134 -35 18 -144 41 -180 39 -8 -1 -35 -5 -59 -10z"/>
<path d="M920 959 l0 -401 -29 -29 c-53 -52 -132 -37 -183 36 l-32 45 -87 -47
-87 -47 14 -29 c27 -51 85 -106 142 -134 44 -21 74 -28 142 -31 125 -6 187 14
254 81 85 86 86 91 86 558 l0 399 -110 0 -110 0 0 -401z"/>
</g>
</svg>
